<svg width="1200" height="630" xmlns="http://www.w3.org/2000/svg">
  <defs>
    <linearGradient id="bgGradient" x1="0%" y1="0%" x2="100%" y2="100%">
      <stop offset="0%" style="stop-color:#0f172a"/>
      <stop offset="100%" style="stop-color:#1e293b"/>
    </linearGradient>
  </defs>

  <!-- Background -->
  <rect width="1200" height="630" fill="url(#bgGradient)"/>

  <!-- Decorative elements -->
  <circle cx="150" cy="100" r="250" fill="#3B82F6" opacity="0.05"/>
  <circle cx="1050" cy="530" r="300" fill="#3B82F6" opacity="0.05"/>

  <!-- Top accent line -->
  <rect x="0" y="0" width="1200" height="4" fill="#3B82F6"/>

  <!-- AD Logo -->
  <g transform="translate(510, 120) scale(1.2)">
    <path d="M2 84L28 16h12L16 84H2z" fill="#e2e8f0"/>
    <path d="M28 16L54 84H42L28 16z" fill="#e2e8f0"/>
    <path d="M10 60h28v9H10z" fill="#e2e8f0"/>
    <path d="M50 16h8v68h-8z" fill="#3B82F6"/>
    <path d="M58 16h12c16 0 28 15 28 34s-12 34-28 34H58V74h12c11 0 18-9 18-24s-7-24-18-24H58V16z" fill="#e2e8f0"/>
  </g>

  <!-- WINAID text -->
  <text x="600" y="290" font-family="Arial Black, Arial, sans-serif" font-size="48" font-weight="900" fill="#ffffff" text-anchor="middle">WINAID</text>

  <!-- Subtitle -->
  <text x="600" y="340" font-family="Arial, sans-serif" font-size="28" fill="#94a3b8" text-anchor="middle">AI Hospital Marketing Platform</text>

  <!-- Divider -->
  <rect x="500" y="370" width="200" height="2" fill="#3B82F6" opacity="0.5"/>

  <!-- Description -->
  <text x="600" y="420" font-family="Arial, sans-serif" font-size="26" fill="#e2e8f0" text-anchor="middle">30&#xCD08; &#xB9CC;&#xC5D0; &#xBE14;&#xB85C;&#xADF8; &#xC790;&#xB3D9; &#xC0DD;&#xC131;</text>

  <!-- Features -->
  <text x="600" y="470" font-family="Arial, sans-serif" font-size="20" fill="#64748b" text-anchor="middle">&#xC758;&#xB8CC;&#xAD11;&#xACE0;&#xBC95; 100% &#xC900;&#xC218;  |  AI &#xC774;&#xBBF8;&#xC9C0; &#xC0DD;&#xC131;  |  &#xB124;&#xC774;&#xBC84; &#xCD5C;&#xC801;&#xD654;</text>

  <!-- Bottom bar -->
  <rect x="0" y="580" width="1200" height="50" fill="#3B82F6" opacity="0.1"/>
  <text x="600" y="612" font-family="Arial, sans-serif" font-size="20" fill="#3B82F6" text-anchor="middle">story-darugi.com</text>
</svg>
